<?xml version="1.0" encoding="utf-8"?>
<!-- Generator: Adobe Illustrator 28.2.0, SVG Export Plug-In . SVG Version: 6.00 Build 0)  -->
<svg version="1.1" id="Layer_1" xmlns="http://www.w3.org/2000/svg" xmlns:xlink="http://www.w3.org/1999/xlink" x="0px" y="0px"
	 viewBox="0 0 80 80" style="enable-background:new 0 0 80 80;" xml:space="preserve">
<style type="text/css">
	.st0{fill:#1B185E;}
	.st1{clip-path:url(#SVGID_00000127749362400940551940000007709449474247909303_);fill:#FFFFFF;}
	.st2{clip-path:url(#SVGID_00000165929303836043380530000000895364725108379297_);fill:#FFFFFF;}
	.st3{clip-path:url(#SVGID_00000105407843285314856610000017831479652963664565_);fill:#FFFFFF;}
	.st4{clip-path:url(#SVGID_00000027578115125085998090000009110591935086310075_);fill:#FFFFFF;}
</style>
<g>
	<path class="st0" d="M40.32,64.37c-8.43,0-16.86,0-25.29,0c-0.38,0-2.42-0.04-4.07-1.69c-1.04-1.04-1.69-2.48-1.69-4.07V9.12
		c0-3.18,2.58-5.75,5.75-5.75h49.49c3.18,0,5.75,2.58,5.75,5.75v67.25L40.32,64.37z"/>
</g>
<g>
	<defs>
		<path id="SVGID_1_" d="M29.28,41.16c0-8.23,6.73-14.96,14.96-14.96h8.12c3.2,0,5.8-2.54,5.91-5.71v-0.41
			c-0.11-3.17-2.71-5.71-5.91-5.71h-0.21h-7.91c-22.62,0-28.64,31.83-7.37,39.8C32.35,51.59,29.28,46.71,29.28,41.16"/>
	</defs>
	<use xlink:href="#SVGID_1_"  style="overflow:visible;fill-rule:evenodd;clip-rule:evenodd;fill:#FFFFFF;"/>
	<clipPath id="SVGID_00000107561324279536159590000002973381489584937146_">
		<use xlink:href="#SVGID_1_"  style="overflow:visible;"/>
	</clipPath>
	
		<rect x="21.61" y="14.37" style="clip-path:url(#SVGID_00000107561324279536159590000002973381489584937146_);fill:#FFFFFF;" width="42.67" height="39.8"/>
</g>
<g>
	<defs>
		<path id="SVGID_00000176754402612536355010000013589645721602789800_" d="M43.69,29.7C37.64,30,32.77,35.05,32.77,41.16
			c0,1.66,0.36,3.24,1,4.67c2.7-2.66,6.4-4.3,10.47-4.3h8.12c3.2,0,5.8-2.54,5.91-5.71v-0.41c-0.11-3.17-2.71-5.71-5.91-5.71h-8.12
			C44.06,29.7,43.87,29.7,43.69,29.7"/>
	</defs>
	
		<use xlink:href="#SVGID_00000176754402612536355010000013589645721602789800_"  style="overflow:visible;fill-rule:evenodd;clip-rule:evenodd;fill:#FFFFFF;"/>
	<clipPath id="SVGID_00000165946276575708653810000016848905175438955951_">
		<use xlink:href="#SVGID_00000176754402612536355010000013589645721602789800_"  style="overflow:visible;"/>
	</clipPath>
	
		<rect x="32.77" y="29.7" style="clip-path:url(#SVGID_00000165946276575708653810000016848905175438955951_);fill:#FFFFFF;" width="25.5" height="16.13"/>
</g>
<g>
	<defs>
		<path id="SVGID_00000079482539242481189420000002973498886996628388_" d="M43.69,29.7C37.64,30,32.77,35.05,32.77,41.16
			c0,1.66,0.36,3.24,1,4.67c-0.11-2.69,0.89-5.3,2.77-7.23c1.87-1.93,4.46-3.01,7.15-2.98h8.67c1.09,0.06,2.13-0.5,2.69-1.43
			c0.56-0.94,0.56-2.11,0-3.05c-0.46-0.77-1.24-1.28-2.1-1.41c-0.19-0.02-0.39-0.03-0.59-0.03h-8.12
			C44.06,29.7,43.87,29.7,43.69,29.7"/>
	</defs>
	
		<use xlink:href="#SVGID_00000079482539242481189420000002973498886996628388_"  style="overflow:visible;fill-rule:evenodd;clip-rule:evenodd;fill:#FFFFFF;"/>
	<clipPath id="SVGID_00000129894845437970788490000011182902033964904861_">
		<use xlink:href="#SVGID_00000079482539242481189420000002973498886996628388_"  style="overflow:visible;"/>
	</clipPath>
	
		<rect x="32.77" y="29.7" style="clip-path:url(#SVGID_00000129894845437970788490000011182902033964904861_);fill:#FFFFFF;" width="22.84" height="16.13"/>
</g>
<g>
	<defs>
		<path id="SVGID_00000101805558575907508970000010825683641279568035_" d="M55.03,15.88c-0.53-0.91-1.49-1.48-2.54-1.51
			c-0.04,0-0.09,0-0.13,0h-0.21h-7.91c-11.07,0-18.17,7.63-20.03,16.35c-1.94,9.09,1.8,19.38,12.66,23.45
			c-7.08-3.07-11.26-10.34-10.5-17.88c0.06-0.62,0.16-1.24,0.29-1.86c0.56-2.66,1.73-5.08,3.35-7.12c3.35-4.23,8.6-6.87,14.23-6.84
			c5.41,0,8.12,0,8.12,0c0.01,0,0.03,0,0.04,0c1.08,0,2.09-0.58,2.64-1.51c0.49-0.83,0.54-1.84,0.17-2.72
			C55.15,16.11,55.1,16,55.03,15.88"/>
	</defs>
	
		<use xlink:href="#SVGID_00000101805558575907508970000010825683641279568035_"  style="overflow:visible;fill-rule:evenodd;clip-rule:evenodd;fill:#FFFFFF;"/>
	<clipPath id="SVGID_00000097470258466404932510000014832844189389258174_">
		<use xlink:href="#SVGID_00000101805558575907508970000010825683641279568035_"  style="overflow:visible;"/>
	</clipPath>
	
		<rect x="22.27" y="14.37" style="clip-path:url(#SVGID_00000097470258466404932510000014832844189389258174_);fill:#FFFFFF;" width="33.3" height="39.8"/>
</g>
</svg>
